<svg id="Layer_1" data-name="Layer 1" xmlns="http://www.w3.org/2000/svg" viewBox="0 0 754.93 148.13"><defs><style>.cls-1{fill:black;stroke:#ede822;stroke-width:1.69px;}.cls-1,.cls-3{stroke-miterlimit:10;}.cls-2{fill:#d9e021;}.cls-3{fill:none;stroke:#a6ce39;stroke-width:1.78px;}</style></defs><title>connect</title><rect class="cls-1" x="0.85" y="0.85" width="726.08" height="119.28"/><path class="cls-2" d="M982.08,2296.39v-21.16c-4.14,1.07-6.18,2-6.57,2a1,1,0,0,1-1-1.12c0-1.36,3-1.31,9.15-3v32H982C982,2300.09,982.08,2297.17,982.08,2296.39Zm3.6-23.65c3-.77,6.52-1.7,10.75-2.91,0,3.4-.1,6.08-.1,8v18.24c0,3.12,0,6.13.2,9.1H985.68Z" transform="translate(-929.94 -2221.17)"/><path class="cls-2" d="M1009,2305.05a5.48,5.48,0,0,1,0-9.48Zm1.94-10.17a7.48,7.48,0,0,1,2.68-.38c4.53,0,7.35,2.38,7.35,5.79s-2.78,5.79-7.74,5.79a8.43,8.43,0,0,1-2.29-.29Z" transform="translate(-929.94 -2221.17)"/><path class="cls-2" d="M1040.72,2288a18.23,18.23,0,0,1,3-10.08v20.15A17.52,17.52,0,0,1,1040.72,2288Zm18.34,16.64a16.89,16.89,0,0,0,13.77-6.43c1.61-1.94,1.81-3.65,2.78-3.65a.74.74,0,0,1,.78.83c0,.68-.93,2.63-3,4.82a18.83,18.83,0,0,1-14,6,18.6,18.6,0,0,1-13.77-5.64v-25.06a18.14,18.14,0,0,1,13.72-5.79,19.17,19.17,0,0,1,12.75,4.62c1.9,1.56,2.78,2.77,2.78,3.46a.73.73,0,0,1-.78.68c-.83,0-1.27-1.12-2.63-2.34a17.76,17.76,0,0,0-12.21-4.86c-.64,0-1.32,0-2,.09v33.19C1057.9,2304.62,1058.48,2304.62,1059.06,2304.62Z" transform="translate(-929.94 -2221.17)"/><path class="cls-2" d="M1078.78,2288a18.3,18.3,0,0,1,3-10.08v20.15A17.59,17.59,0,0,1,1078.78,2288Zm5-12.46a18.07,18.07,0,0,1,13.33-5.79,17.81,17.81,0,0,1,12.9,5.3,18.34,18.34,0,0,1,0,25.89,18,18,0,0,1-12.9,5.3,18.5,18.5,0,0,1-13.33-5.64Zm13.23,29.1a16.65,16.65,0,1,0,0-33.29c-.53,0-1.12,0-1.65.05v33.19C1095.9,2304.62,1096.44,2304.62,1097,2304.62Z" transform="translate(-929.94 -2221.17)"/><path class="cls-2" d="M1121.45,2288.75v7.79c0,4,.25,6.52.25,7.49s-.25,1.46-1.07,1.46c-1.07,0-1.17-.39-1.17-1.6,0-2.58.39-6.18.39-10.95v-7.2l33.48,18.34v2.19C1142.72,2300,1132.11,2294.11,1121.45,2288.75Zm30.27-1.55v-7.79c0-3.94-.29-6.42-.29-7.49s.24-1.46,1.07-1.46,1.22.29,1.22,1.17c0,3.11-.39,6.91-.39,11.43v18.73l-33.48-18.39v-13.67C1130.8,2276.25,1141.4,2282,1151.72,2287.2Z" transform="translate(-929.94 -2221.17)"/><path class="cls-2" d="M1160.78,2288.75v7.79c0,4,.24,6.52.24,7.49s-.24,1.46-1.07,1.46c-1.07,0-1.17-.39-1.17-1.6,0-2.58.39-6.18.39-10.95v-7.2l33.48,18.34v2.19C1182,2300,1171.43,2294.11,1160.78,2288.75Zm30.26-1.55v-7.79c0-3.94-.29-6.42-.29-7.49s.24-1.46,1.07-1.46,1.22.29,1.22,1.17c0,3.11-.39,6.91-.39,11.43v18.73l-33.48-18.39v-13.67C1170.12,2276.25,1180.73,2282,1191,2287.2Z" transform="translate(-929.94 -2221.17)"/><path class="cls-2" d="M1198.49,2299.61v-23.26c0-.54,0-2.39-.1-5.55h1.71v34.35h-1.71C1198.44,2302,1198.49,2300.14,1198.49,2299.61Zm3.6,5.54V2270.8h24.43c1,0,1.41.1,1.41.87s-.34.93-1.41.93-4.67-.24-11.14-.24h-1.71v7.93h2.19c6.91,0,10.81-.2,11.63-.2,1.27,0,1.71.15,1.71,1,0,.64-.34.88-1.12.88s-5.75-.15-14.41-.15v21.76c5.45,0,8.62,0,9.59,0,3.65,0,5.64-.24,6-.24a.83.83,0,0,1,.93.88c0,.77-.39.87-1.41.87Z" transform="translate(-929.94 -2221.17)"/><path class="cls-2" d="M1232.61,2288a18.3,18.3,0,0,1,3-10.08v20.15A17.59,17.59,0,0,1,1232.61,2288Zm18.34,16.64a16.92,16.92,0,0,0,13.77-6.43c1.61-1.94,1.8-3.65,2.78-3.65a.73.73,0,0,1,.77.83c0,.68-.92,2.63-3,4.82a18.84,18.84,0,0,1-14,6,18.58,18.58,0,0,1-13.77-5.64v-25.06a18.12,18.12,0,0,1,13.72-5.79,19.17,19.17,0,0,1,12.75,4.62c1.9,1.56,2.77,2.77,2.77,3.46a.72.72,0,0,1-.77.68c-.83,0-1.27-1.12-2.63-2.34a17.77,17.77,0,0,0-12.22-4.86c-.63,0-1.31,0-2,.09v33.19C1249.78,2304.62,1250.37,2304.62,1251,2304.62Z" transform="translate(-929.94 -2221.17)"/><path class="cls-2" d="M1278.2,2299.61V2278c0-.53,0-2.33-.09-5.5-5.11.15-7.94.34-8.52.34-.92,0-1.31-.24-1.31-.92s.34-1,1.46-1h10.07v34.3h-1.7C1278.16,2302,1278.2,2300.14,1278.2,2299.61Zm3.6-28.76h20c1.12,0,1.46.19,1.46,1s-.39.92-1.31.92c-.58,0-3.36-.19-8.47-.34,0,3.17-.1,5-.1,5.5v21.7c0,.54,0,2.34.1,5.5H1281.8Z" transform="translate(-929.94 -2221.17)"/><path class="cls-2" d="M1328.62,2299.61V2278c0-.53,0-2.33-.1-5.5-5.11.15-7.93.34-8.51.34-.93,0-1.32-.24-1.32-.92s.34-1,1.46-1h10.08v34.3h-1.71C1328.57,2302,1328.62,2300.14,1328.62,2299.61Zm3.6-28.76h20c1.12,0,1.46.19,1.46,1s-.39.92-1.31.92c-.59,0-3.36-.19-8.47-.34,0,3.17-.1,5-.1,5.5v21.7c0,.54.05,2.34.1,5.5h-11.73Z" transform="translate(-929.94 -2221.17)"/><path class="cls-2" d="M1354.51,2288a18.23,18.23,0,0,1,3-10.08v20.15A17.52,17.52,0,0,1,1354.51,2288Zm5-12.46a18.09,18.09,0,0,1,13.34-5.79,17.78,17.78,0,0,1,12.89,5.3,18.31,18.31,0,0,1,0,25.89,18,18,0,0,1-12.89,5.3,18.54,18.54,0,0,1-13.34-5.64Zm13.24,29.1a16.65,16.65,0,1,0,0-33.29c-.54,0-1.12,0-1.66.05v33.19C1371.64,2304.62,1372.17,2304.62,1372.71,2304.62Z" transform="translate(-929.94 -2221.17)"/><path class="cls-2" d="M1412.28,2279.31c-.64-1.55-1.85-4.42-3.7-8.51h1.94l13.78,34.64-1,2.19Zm18.1,9.35,2.58-5.31,11.43,22.09-.83,2.19c-3.5-7.1-7-13.91-10.65-20.58l-7.35,15.91-12.89-32.16h10.9C1425.42,2276.15,1427.65,2282.09,1430.38,2288.66Zm19-.49a173.76,173.76,0,0,0,5.93-16.79c.29-1,.54-1.46,1.22-1.46.53,0,1,.39,1,.73,0,.64-.73,2.24-1.8,5l-5.06,13.09c-.78,2.05-2.58,6.72-5.35,14.12l-11.29-21.8,5.59-11.44Q1444,2278.75,1449.36,2288.17Z" transform="translate(-929.94 -2221.17)"/><path class="cls-2" d="M1475.1,2300.48h-17.56c-1.9,3.07-2.44,5-3.41,5a1,1,0,0,1-1-1c0-.73,3.06-4.86,7.88-13.19l5.59-9.68,13.09,23.55h-2.14Zm-8.56-15.23-8,13.53h15.67C1471.7,2294.06,1469.17,2289.53,1466.54,2285.25Zm28.85,19.9h-13.33l-14.16-25.64,6.47-11.1Z" transform="translate(-929.94 -2221.17)"/><path class="cls-2" d="M1496.42,2299.61v-23.26c0-.54-.05-2.39-.1-5.55h1.7v34.35h-1.7C1496.37,2302,1496.42,2300.14,1496.42,2299.61Zm3.6-28.81h11.73c0,3.16-.15,5-.15,5.55v21.75c0,.53.1,2.33.15,5.5h2.77c7.83,0,12.07-.35,12.7-.35s.92.3.92,1-.34.92-1.41.92H1500Z" transform="translate(-929.94 -2221.17)"/><path class="cls-2" d="M1530.34,2299.61v-23.26c0-.54,0-2.39-.1-5.55h1.7v34.35h-1.7C1530.29,2302,1530.34,2300.14,1530.34,2299.61Zm3.6-28.81h11.73c-.05,3.16-.15,5-.15,5.55v21.75c0,.53.1,2.33.15,5.5h2.77c7.83,0,12.07-.35,12.7-.35s.92.3.92,1-.34.92-1.41.92h-26.71Z" transform="translate(-929.94 -2221.17)"/><path class="cls-2" d="M1564.26,2299.61v-23.26c0-.54,0-2.39-.1-5.55h1.7v34.35h-1.7C1564.21,2302,1564.26,2300.14,1564.26,2299.61Zm3.6,5.54V2270.8h24.43c1,0,1.41.1,1.41.87s-.34.93-1.41.93-4.68-.24-11.15-.24h-1.7v7.93h2.19c6.91,0,10.8-.2,11.63-.2,1.26,0,1.7.15,1.7,1,0,.64-.34.88-1.12.88s-5.74-.15-14.4-.15v21.76c5.45,0,8.61,0,9.58,0,3.65,0,5.65-.24,6-.24a.83.83,0,0,1,.92.88c0,.77-.39.87-1.41.87Z" transform="translate(-929.94 -2221.17)"/><path class="cls-2" d="M1605.91,2299.61V2278c0-.53-.05-2.33-.09-5.5-5.11.15-7.94.34-8.52.34-.92,0-1.31-.24-1.31-.92s.34-1,1.46-1h10.07v34.3h-1.7C1605.86,2302,1605.91,2300.14,1605.91,2299.61Zm3.6-28.76h20c1.12,0,1.46.19,1.46,1s-.39.92-1.31.92c-.59,0-3.36-.19-8.47-.34,0,3.17-.1,5-.1,5.5v21.7c0,.54,0,2.34.1,5.5h-11.73Z" transform="translate(-929.94 -2221.17)"/><rect class="cls-3" x="31.57" y="26.6" width="722.47" height="120.64"/></svg>