<svg id="Layer_1" data-name="Layer 1" xmlns="http://www.w3.org/2000/svg" viewBox="0 0 754.95 148.15"><defs><style>.cls-1{fill:black;stroke:#ede822;stroke-width:1.74px;}.cls-1,.cls-3{stroke-miterlimit:10;}.cls-2{fill:#d9e021;}.cls-3{fill:none;stroke:#a6ce39;stroke-width:1.78px;}</style></defs><title>get</title><rect class="cls-1" x="0.87" y="0.87" width="726.08" height="125.28"/><path class="cls-2" d="M1082.88,2268.84c0-2.36-2.15-3.43-6.65-3.43-11.23,0-19.24,6.51-19.24,13.73,0,4.86,2.86,7,2.86,7.79a1.15,1.15,0,0,1-1.21,1.15c-1.65,0-3.94-3.79-3.94-8.66,0-9.08,8.59-16,22.6-16,5.65,0,8.58,1.64,8.58,4.43,0,5.36-10.3,21.24-31.18,47.26h-2.78C1072.94,2288.65,1082.88,2272.85,1082.88,2268.84Zm6.07-.21a8,8,0,0,0-1.28-4.15c7.36,2.36,11.22,7.29,11.22,13.94,0,8.8-7.79,18.81-20.16,34.25H1084a116.9,116.9,0,0,0,13.58-.85c.86,0,1.43.35,1.43.93,0,2.14-1.28,2.71-3.43,2.71-3.43,0-8-.36-13.73-.36h-23.38C1079.23,2288.86,1089,2272.92,1089,2268.63Z" transform="translate(-929.92 -2221.15)"/><path class="cls-2" d="M1107.26,2315a8.07,8.07,0,0,1,0-13.94Zm2.86-14.94a10.83,10.83,0,0,1,3.93-.57c6.65,0,10.8,3.5,10.8,8.5,0,5.22-4.08,8.51-11.37,8.51a11.81,11.81,0,0,1-3.36-.43Z" transform="translate(-929.92 -2221.15)"/><path class="cls-2" d="M1173.61,2307.24c-13.65,0-20.52-5.58-20.52-16.66,0-10.87,6.08-16.45,18-16.45a94.84,94.84,0,0,1,9.51.58v48a39.53,39.53,0,0,1-5.93.36c-10.94,0-16.73-4.5-16.73-8a2,2,0,0,1,1.93-1.93c2.07,0,2.78,1.79,4.5,3.86,2.65,3.22,5.72,4.22,10.73,4.22a32.12,32.12,0,0,0,3.29-.21V2307C1176.76,2307.17,1175.12,2307.24,1173.61,2307.24Zm4.8-30.39a38.51,38.51,0,0,0-8.08-.86c-9.73,0-15,5.22-15,14.59,0,9.87,6,14.59,18.3,14.59,1.51,0,3.08-.08,4.8-.22Zm5,45.4v-47.54h13.94v31.89C1197.35,2316.25,1194.06,2320.32,1183.41,2322.25Z" transform="translate(-929.92 -2221.15)"/><path class="cls-2" d="M1202.5,2294.94a21.49,21.49,0,0,1,3.43-12.15v24.31A21.87,21.87,0,0,1,1202.5,2294.94Zm17.45,14.73c0,3.36.71,4.43,4.29,4.43a19.64,19.64,0,0,0,12.22-4.64c4.15-3.44,5.15-6.44,6.65-6.44a1.41,1.41,0,0,1,1.43,1.5c0,1.36-1.43,3.08-4.21,5.51a24.66,24.66,0,0,1-16.31,6.43,21.33,21.33,0,0,1-15.23-6.15v-30.46a20.75,20.75,0,0,1,15.66-6.5c11.94,0,20.74,8.79,21.17,22.73H1220Zm9.58-15.87v-14.16c0-2.93-1.15-4-4.93-4s-4.65,1.15-4.65,4v14.16Z" transform="translate(-929.92 -2221.15)"/><path class="cls-2" d="M1254.2,2312.53a16.43,16.43,0,0,1-2.29-8.94v-.5l.29-25.38c-2.29,0-3.58.07-3.94.07-1.43,0-2.14-.57-2.14-1.64,0-.65.64-1.22,1.64-1.22s1.93.14,3.08.14a9.79,9.79,0,0,0,1.43-.07v-4.65l2.21-.93Zm17-37.82h1.85c2.79,0,4.37-.22,4.87-.22,1,0,1.57.43,1.57,1.07,0,1.29-.36,1.86-1.43,1.86-.43,0-2.79-.21-6.86-.21l-.43,31.1c0,2.5.57,3.72,2.36,3.72,1.5,0,2.86-1.14,4.43-3.43,1.21-1.79,1.5-3.43,2.93-3.43a1.16,1.16,0,0,1,1.22,1.21c0,.79-.79,2.43-2.58,4.36-3.57,3.94-8.15,5.72-14.37,5.72a16.72,16.72,0,0,1-7.79-1.78l.35-46.2c2.22-.92,7-3.07,14.45-6.5C1271.57,2266.63,1271.36,2270.84,1271.22,2274.71Z" transform="translate(-929.92 -2221.15)"/><path class="cls-2" d="M1315.05,2299.59c-5.08-5.44-7.87-9.58-7.87-14a10.29,10.29,0,0,1,3-7.36,13.19,13.19,0,0,0-1.21,5.29c0,4.5,2.5,8.87,7.29,14.09l6.8,7.36c2.86,3.15,4.5,5.44,4.5,7.44,0,2.21-2.22,3.86-5.93,3.86a22.62,22.62,0,0,1-9.73-2.5c-3-1.43-4.43-2.79-4.43-4a1.3,1.3,0,0,1,1.36-1.43c1,0,2.07,1.43,4.07,2.72,3.15,2,6.08,3,8.44,3,2.64,0,3.93-.78,3.93-2.29s-1.57-3-4.07-5.65Zm14.87,11.8c0-2-1.5-4.58-4.58-8l-6.79-7.58c-4.43-5-7.29-8.8-7.29-13.59,0-5.5,4.43-8.86,12.58-8.86,8.37,0,14.3,3.72,14.3,5.5a1.36,1.36,0,0,1-1.43,1.29c-1.79,0-5-4.51-11-4.51-2.22,0-3.57,1.08-3.57,2.87,0,1.5,1.57,2.93,3.93,5.36l7.79,8.08c4.22,4.36,6.37,8.51,6.37,12.3,0,5.93-4.44,10.29-12.8,11.94A5.79,5.79,0,0,0,1329.92,2311.39Z" transform="translate(-929.92 -2221.15)"/><path class="cls-2" d="M1343.79,2294.94a21.41,21.41,0,0,1,3.43-12.15v24.31A21.79,21.79,0,0,1,1343.79,2294.94Zm6.29-15.09a20.52,20.52,0,0,1,15.3-6.5,21,21,0,0,1,15.23,6.36,21.52,21.52,0,0,1-15.23,36.75,22.12,22.12,0,0,1-15.3-6.15Zm14.52,34.25c11.72,0,20.09-8.51,20.09-19.16s-8.29-19.16-20-19.16h-.57v38.32Z" transform="translate(-929.92 -2221.15)"/><path class="cls-2" d="M1392.91,2307v-34.89c0-.79-.07-3.43-.14-8.08h2.29v51.12h-2.29C1392.84,2310.46,1392.91,2307.74,1392.91,2307Zm4.94-43h14.23c-.08,4.65-.22,7.29-.22,8.08V2307c0,.79.14,3.51.22,8.15h-14.23Z" transform="translate(-929.92 -2221.15)"/><path class="cls-2" d="M1417.8,2294.94a21.41,21.41,0,0,1,3.43-12.15v24.31A21.79,21.79,0,0,1,1417.8,2294.94Zm6.29-15.09a20.49,20.49,0,0,1,15.3-6.5,21.07,21.07,0,0,1,15.23,6.36,21.52,21.52,0,0,1-15.23,36.75,22.09,22.09,0,0,1-15.3-6.15Zm14.51,34.25c11.73,0,20.09-8.51,20.09-19.16s-8.29-19.16-19.94-19.16h-.58v38.32Z" transform="translate(-929.92 -2221.15)"/><path class="cls-2" d="M1469.49,2312.53a16.43,16.43,0,0,1-2.29-8.94v-.5l.29-25.38c-2.29,0-3.57.07-3.93.07-1.43,0-2.15-.57-2.15-1.64,0-.65.65-1.22,1.65-1.22s1.93.14,3.07.14a9.79,9.79,0,0,0,1.43-.07v-4.65l2.22-.93Zm17-37.82h1.86c2.79,0,4.36-.22,4.86-.22,1,0,1.57.43,1.57,1.07,0,1.29-.35,1.86-1.43,1.86-.42,0-2.78-.21-6.86-.21l-.43,31.1c0,2.5.57,3.72,2.36,3.72,1.5,0,2.86-1.14,4.43-3.43,1.22-1.79,1.51-3.43,2.94-3.43a1.16,1.16,0,0,1,1.21,1.21c0,.79-.79,2.43-2.57,4.36-3.58,3.94-8.15,5.72-14.38,5.72a16.72,16.72,0,0,1-7.79-1.78l.36-46.2c2.21-.92,7-3.07,14.44-6.5C1486.87,2266.63,1486.65,2270.84,1486.51,2274.71Z" transform="translate(-929.92 -2221.15)"/><path class="cls-2" d="M1502.46,2312.53a16.34,16.34,0,0,1-2.29-8.94v-.5l.28-25.38c-2.28,0-3.57.07-3.93.07-1.43,0-2.14-.57-2.14-1.64,0-.65.64-1.22,1.64-1.22s1.93.14,3.07.14a9.79,9.79,0,0,0,1.43-.07v-4.65l2.22-.93Zm17-37.82h1.86c2.79,0,4.36-.22,4.86-.22,1,0,1.58.43,1.58,1.07,0,1.29-.36,1.86-1.43,1.86-.43,0-2.79-.21-6.87-.21l-.43,31.1c0,2.5.58,3.72,2.36,3.72,1.51,0,2.86-1.14,4.44-3.43,1.21-1.79,1.5-3.43,2.93-3.43a1.16,1.16,0,0,1,1.21,1.21c0,.79-.78,2.43-2.57,4.36-3.58,3.94-8.15,5.72-14.37,5.72a16.76,16.76,0,0,1-7.8-1.78l.36-46.2c2.22-.92,7-3.07,14.44-6.5C1519.83,2266.63,1519.62,2270.84,1519.47,2274.71Z" transform="translate(-929.92 -2221.15)"/><path class="cls-2" d="M1530.2,2294.94a21.41,21.41,0,0,1,3.43-12.15v24.31A21.79,21.79,0,0,1,1530.2,2294.94Zm6.29-15.09a20.5,20.5,0,0,1,15.3-6.5,21.05,21.05,0,0,1,15.23,6.36,21.52,21.52,0,0,1-15.23,36.75,22.1,22.1,0,0,1-15.3-6.15ZM1551,2314.1c11.72,0,20.09-8.51,20.09-19.16s-8.3-19.16-19.95-19.16h-.57v38.32Z" transform="translate(-929.92 -2221.15)"/><rect class="cls-3" x="31.59" y="26.62" width="722.47" height="120.64"/></svg>